<svg width="509pt" height="188pt" viewBox="0.00 0.00 508.59 188.00" xmlns="http://www.w3.org/2000/svg" xmlns:xlink="http://www.w3.org/1999/xlink">
<g id="graph0" class="graph" transform="scale(1 1) rotate(0) translate(4 184)">
<title>dependencies</title>
<polygon fill="white" stroke="none" points="-4,4 -4,-184 504.59,-184 504.59,4 -4,4"/>
<!-- Flask -->
<g id="node1" class="node">
<title>Flask</title>
<ellipse fill="none" stroke="black" cx="193.8" cy="-162" rx="31.96" ry="18"/>
<text text-anchor="middle" x="193.8" y="-157.8" font-family="Times,serif" font-size="14.00">Flask</text>
</g>
<!-- click -->
<g id="node2" class="node">
<title>click</title>
<ellipse fill="none" stroke="black" cx="29.8" cy="-90" rx="29.8" ry="18"/>
<text text-anchor="middle" x="29.8" y="-85.8" font-family="Times,serif" font-size="14.00">click</text>
</g>
<!-- Flask&#45;&gt;click -->
<g id="edge1" class="edge">
<title>Flask-&gt;click</title>
<path fill="none" stroke="black" d="M168.87,-150.51C143.62,-139.88 103.45,-122.9 68.8,-108 67.08,-107.26 65.31,-106.5 63.52,-105.72"/>
<polygon fill="black" stroke="black" points="65.25,-102.66 54.69,-101.89 62.47,-109.08 65.25,-102.66"/>
</g>
<!-- itsdangerous -->
<g id="node3" class="node">
<title>itsdangerous</title>
<ellipse fill="none" stroke="black" cx="137.8" cy="-90" rx="59.85" ry="18"/>
<text text-anchor="middle" x="137.8" y="-85.8" font-family="Times,serif" font-size="14.00">itsdangerous</text>
</g>
<!-- Flask&#45;&gt;itsdangerous -->
<g id="edge2" class="edge">
<title>Flask-&gt;itsdangerous</title>
<path fill="none" stroke="black" d="M181.1,-145.12C174.35,-136.68 165.89,-126.1 158.24,-116.55"/>
<polygon fill="black" stroke="black" points="161.17,-114.6 152.19,-108.98 155.7,-118.97 161.17,-114.6"/>
</g>
<!-- Jinja2 -->
<g id="node4" class="node">
<title>Jinja2</title>
<ellipse fill="none" stroke="black" cx="249.8" cy="-90" rx="34.1" ry="18"/>
<text text-anchor="middle" x="249.8" y="-85.8" font-family="Times,serif" font-size="14.00">Jinja2</text>
</g>
<!-- Flask&#45;&gt;Jinja2 -->
<g id="edge3" class="edge">
<title>Flask-&gt;Jinja2</title>
<path fill="none" stroke="black" d="M206.51,-145.12C213.46,-136.43 222.21,-125.49 230.03,-115.72"/>
<polygon fill="black" stroke="black" points="232.69,-118 236.2,-108 227.22,-113.63 232.69,-118"/>
</g>
<!-- Werkzeug -->
<g id="node5" class="node">
<title>Werkzeug</title>
<ellipse fill="none" stroke="black" cx="352.8" cy="-90" rx="50.71" ry="18"/>
<text text-anchor="middle" x="352.8" y="-85.8" font-family="Times,serif" font-size="14.00">Werkzeug</text>
</g>
<!-- Flask&#45;&gt;Werkzeug -->
<g id="edge4" class="edge">
<title>Flask-&gt;Werkzeug</title>
<path fill="none" stroke="black" d="M218.3,-150.22C243.05,-139.32 281.75,-122.28 311.29,-109.28"/>
<polygon fill="black" stroke="black" points="312.59,-112.53 320.34,-105.29 309.77,-106.12 312.59,-112.53"/>
</g>
<!-- MarkupSafe -->
<g id="node6" class="node">
<title>MarkupSafe</title>
<ellipse fill="none" stroke="black" cx="249.8" cy="-18" rx="58.77" ry="18"/>
<text text-anchor="middle" x="249.8" y="-13.8" font-family="Times,serif" font-size="14.00">MarkupSafe</text>
</g>
<!-- Jinja2&#45;&gt;MarkupSafe -->
<g id="edge5" class="edge">
<title>Jinja2-&gt;MarkupSafe</title>
<path fill="none" stroke="black" d="M249.8,-71.7C249.8,-64.41 249.8,-55.73 249.8,-47.54"/>
<polygon fill="black" stroke="black" points="253.3,-47.62 249.8,-37.62 246.3,-47.62 253.3,-47.62"/>
</g>
<!-- pipdeptree -->
<g id="node7" class="node">
<title>pipdeptree</title>
<ellipse fill="none" stroke="black" cx="448.8" cy="-162" rx="51.79" ry="18"/>
<text text-anchor="middle" x="448.8" y="-157.8" font-family="Times,serif" font-size="14.00">pipdeptree</text>
</g>
<!-- pip -->
<g id="node8" class="node">
<title>pip</title>
<ellipse fill="none" stroke="black" cx="448.8" cy="-90" rx="27" ry="18"/>
<text text-anchor="middle" x="448.8" y="-85.8" font-family="Times,serif" font-size="14.00">pip</text>
</g>
<!-- pipdeptree&#45;&gt;pip -->
<g id="edge6" class="edge">
<title>pipdeptree-&gt;pip</title>
<path fill="none" stroke="black" d="M448.8,-143.7C448.8,-136.41 448.8,-127.73 448.8,-119.54"/>
<polygon fill="black" stroke="black" points="452.3,-119.62 448.8,-109.62 445.3,-119.62 452.3,-119.62"/>
</g>
</g>
</svg>